<?xml version="1.0" encoding="utf-8"?>
<!-- Generator: Adobe Illustrator 16.0.0, SVG Export Plug-In . SVG Version: 6.00 Build 0)  -->
<!DOCTYPE svg PUBLIC "-//W3C//DTD SVG 1.1//EN" "http://www.w3.org/Graphics/SVG/1.1/DTD/svg11.dtd">
<svg version="1.1" id="Your_Icon" xmlns="http://www.w3.org/2000/svg" xmlns:xlink="http://www.w3.org/1999/xlink" x="0px" y="0px"
	 width="99.212px" height="100px" viewBox="-2.303 0 99.212 100" enable-background="new -2.303 0 99.212 100" xml:space="preserve"
	>
<g>
	<g>
		<path fill="#FFFFFF" d="M69.648,75.396c-1.065,0-1.93-0.863-1.93-1.928c0-11.043-8.982-20.025-20.025-20.025
			c-11.042,0-20.025,8.982-20.025,20.025c0,1.064-0.863,1.928-1.928,1.928c-1.065,0-1.928-0.863-1.928-1.928
			c0-13.17,10.713-23.883,23.881-23.883c13.169,0,23.882,10.713,23.882,23.883C71.575,74.533,70.712,75.396,69.648,75.396z"/>
	</g>
	<g>
		<path fill="#FFFFFF" d="M47.544,42.813c-1.064,0-1.928-0.865-1.928-1.929V26.531c0-1.063,0.861-1.927,1.928-1.927
			c1.064,0,1.927,0.864,1.927,1.927v14.353C49.471,41.948,48.608,42.813,47.544,42.813z"/>
	</g>
	<g>
		<path fill="#FFFFFF" d="M70.315,52.961c-0.492,0-0.987-0.189-1.363-0.566c-0.754-0.752-0.754-1.973,0-2.725l10.149-10.147
			c0.75-0.753,1.972-0.753,2.723,0c0.756,0.754,0.756,1.973,0,2.727L71.678,52.395C71.301,52.771,70.809,52.961,70.315,52.961z"/>
	</g>
	<g>
		<path fill="#FFFFFF" d="M24.771,52.961c-0.494,0-0.986-0.189-1.363-0.566L13.26,42.248c-0.753-0.753-0.753-1.974,0-2.726
			c0.754-0.755,1.974-0.755,2.727,0l10.147,10.146c0.754,0.753,0.754,1.974,0,2.724C25.758,52.771,25.265,52.961,24.771,52.961z"/>
	</g>
	<g>
		<path fill="#FFFFFF" d="M17.02,74.807H2.668c-1.064,0-1.928-0.859-1.928-1.928c0-1.062,0.863-1.928,1.928-1.928H17.02
			c1.063,0,1.927,0.863,1.927,1.928C18.947,73.947,18.084,74.807,17.02,74.807z"/>
	</g>
	<g>
		<path fill="#FFFFFF" d="M91.936,74.807h-14.35c-1.064,0-1.929-0.859-1.929-1.928c0-1.062,0.864-1.928,1.929-1.928h14.35
			c1.065,0,1.93,0.863,1.93,1.928C93.865,73.947,93.001,74.807,91.936,74.807z"/>
	</g>
</g>
</svg>
