<?xml version="1.0" encoding="utf-8"?>
<!-- Generator: Adobe Illustrator 16.0.0, SVG Export Plug-In . SVG Version: 6.00 Build 0)  -->
<!DOCTYPE svg PUBLIC "-//W3C//DTD SVG 1.1//EN" "http://www.w3.org/Graphics/SVG/1.1/DTD/svg11.dtd">
<svg version="1.1" id="Your_Icon" xmlns="http://www.w3.org/2000/svg" xmlns:xlink="http://www.w3.org/1999/xlink" x="0px" y="0px"
	 width="99.212px" height="100px" viewBox="-2.303 0 99.212 100" enable-background="new -2.303 0 99.212 100" xml:space="preserve"
	>
<g>
	<path fill="#FFFFFF" d="M57.578,27.491c0.42,0.42,0.969,0.63,1.521,0.63c0.551,0,1.102-0.209,1.521-0.63
		c0.84-0.839,0.84-2.2,0-3.04l-11.59-11.588c-0.393-0.532-1.017-0.882-1.729-0.882s-1.337,0.35-1.729,0.882L33.986,24.451
		c-0.84,0.84-0.84,2.2,0,3.04c0.421,0.42,0.971,0.63,1.521,0.63s1.1-0.209,1.52-0.63l8.126-8.126v8.569L33.986,39.1
		c-0.84,0.841-0.84,2.202,0,3.041c0.421,0.42,0.971,0.629,1.521,0.629s1.1-0.209,1.52-0.629l8.126-8.126v10.393L33.986,55.573
		c-0.84,0.838-0.84,2.198,0,3.039c0.421,0.42,0.971,0.631,1.521,0.631s1.1-0.211,1.52-0.631l8.126-8.127v18.832
		c0,1.188,0.963,2.149,2.15,2.149s2.148-0.964,2.148-2.149v-18.83l8.127,8.125c0.42,0.422,0.969,0.631,1.521,0.631
		c0.551,0,1.101-0.209,1.521-0.631c0.84-0.838,0.84-2.199,0-3.037L49.451,44.407V34.014l8.127,8.126
		c0.42,0.42,0.969,0.629,1.521,0.629c0.551,0,1.102-0.209,1.521-0.629c0.84-0.839,0.84-2.2,0-3.041l-11.17-11.165v-8.569
		L57.578,27.491z"/>
	<path fill="#FFFFFF" d="M88.367,58.42c0.42,0.42,0.971,0.629,1.521,0.629c0.551,0,1.101-0.209,1.521-0.629
		c0.84-0.841,0.84-2.201,0-3.04L80.24,44.213v-8.568l8.127,8.126c0.42,0.418,0.971,0.629,1.521,0.629
		c0.551,0,1.101-0.209,1.521-0.63c0.84-0.839,0.84-2.2,0-3.04L79.817,29.141c-0.391-0.53-1.016-0.88-1.728-0.88
		c-0.711,0-1.336,0.35-1.727,0.88L64.774,40.729c-0.84,0.84-0.84,2.201,0,3.041c0.421,0.418,0.972,0.629,1.521,0.629
		c0.552,0,1.103-0.209,1.521-0.63l8.126-8.126v8.569L64.774,55.38c-0.84,0.839-0.84,2.199,0,3.04
		c0.421,0.42,0.972,0.629,1.521,0.629c0.552,0,1.103-0.209,1.521-0.629l8.126-8.126v10.392L64.774,71.853
		c-0.84,0.84-0.84,2.2,0,3.041c0.421,0.419,0.972,0.629,1.521,0.629c0.552,0,1.103-0.21,1.521-0.631l8.126-8.126v18.832
		c0,1.188,0.963,2.149,2.148,2.149c1.188,0,2.15-0.963,2.15-2.149V66.766l8.127,8.128c0.42,0.419,0.971,0.629,1.521,0.629
		c0.551,0,1.101-0.21,1.521-0.631c0.84-0.839,0.84-2.199,0-3.04L80.24,60.686V50.294L88.367,58.42z"/>
	<path fill="#FFFFFF" d="M26.79,44.044c0.42,0.42,0.97,0.63,1.521,0.63c0.55,0,1.101-0.21,1.521-0.628
		c0.839-0.84,0.839-2.202,0-3.042L18.244,29.417c-0.392-0.534-1.019-0.883-1.729-0.883s-1.338,0.35-1.729,0.883L3.198,41.004
		c-0.841,0.839-0.841,2.2,0,3.04c0.42,0.42,0.97,0.63,1.521,0.63s1.1-0.21,1.521-0.63l8.126-8.126v8.569L3.198,55.653
		c-0.841,0.84-0.841,2.2,0,3.041c0.42,0.418,0.97,0.629,1.521,0.629s1.1-0.211,1.521-0.629l8.126-8.127v10.395L3.198,72.127
		c-0.841,0.838-0.841,2.2,0,3.039c0.42,0.42,0.97,0.63,1.521,0.63s1.1-0.21,1.521-0.63l8.126-8.126v18.83
		c0,1.188,0.962,2.148,2.149,2.148c1.188,0,2.149-0.962,2.149-2.148V67.04l8.125,8.126c0.42,0.42,0.97,0.63,1.521,0.63
		c0.55,0,1.101-0.21,1.521-0.63c0.839-0.839,0.839-2.201,0-3.039L18.664,60.96V50.565l8.125,8.127c0.42,0.42,0.97,0.629,1.521,0.629
		c0.55,0,1.101-0.209,1.521-0.629c0.839-0.84,0.839-2.201,0-3.041L18.664,44.487v-8.568L26.79,44.044z"/>
</g>
</svg>
