<?xml version="1.0" encoding="utf-8"?>
<!-- Generator: Adobe Illustrator 16.0.0, SVG Export Plug-In . SVG Version: 6.00 Build 0)  -->
<!DOCTYPE svg PUBLIC "-//W3C//DTD SVG 1.1//EN" "http://www.w3.org/Graphics/SVG/1.1/DTD/svg11.dtd">
<svg version="1.1" id="Layer_1" xmlns="http://www.w3.org/2000/svg" xmlns:xlink="http://www.w3.org/1999/xlink" x="0px" y="0px"
	 width="99.212px" height="100px" viewBox="-2.303 0 99.212 100" enable-background="new -2.303 0 99.212 100" xml:space="preserve"
	>
<g>
	<g>
		<path fill="#FFFFFF" d="M19.898,55.791h-3.948C9.669,55.674,4.75,50.77,4.75,44.625c0-6.155,5.008-11.163,11.164-11.163
			c1.438,0,2.847,0.276,4.189,0.821l2.164,0.877l0.535-2.273c1.986-8.446,9.439-14.345,18.124-14.345
			c6.154,0,11.867,3.091,15.307,8.072c1.375-0.369,2.791-0.624,4.238-0.777C56.452,18.917,49,14.543,40.925,14.543
			c-9.823,0-18.348,6.212-21.425,15.351c-1.171-0.287-2.371-0.432-3.586-0.432c-8.361,0-15.164,6.803-15.164,15.163
			c0,8.345,6.644,15.003,15.164,15.166h3.522C19.459,58.42,19.617,57.084,19.898,55.791z"/>
	</g>
	<path fill="#FFFFFF" d="M82.729,48.15c-1.873-10.078-10.652-17.483-21.082-17.483c-9.277,0-17.334,5.845-20.279,14.455
		c-1.082-0.256-2.188-0.386-3.308-0.386c-7.948,0-14.414,6.465-14.414,14.415c0,7.932,6.315,14.262,14.414,14.414h1.779
		c-0.051-0.586-0.089-1.176-0.089-1.773c0-0.754,0.05-1.496,0.131-2.227h-1.783c-5.86-0.109-10.451-4.686-10.451-10.414
		c0-5.742,4.671-10.415,10.414-10.415c1.341,0,2.656,0.258,3.908,0.766l2.164,0.878l0.535-2.272
		c1.861-7.914,8.844-13.438,16.979-13.438c8.953,0,16.412,6.705,17.351,15.597l0.188,1.792h1.801c0.054,0,0.107-0.004,0.164-0.008
		c4.805,0.029,8.705,3.947,8.705,8.76c0,4.748-3.633,8.76-7.933,8.76H79.62c0.081,0.729,0.131,1.473,0.131,2.227
		c0,0.6-0.038,1.188-0.089,1.773h2.262c6.469,0,11.932-5.844,11.932-12.76C93.854,54.322,88.995,48.955,82.729,48.15z"/>
	<g>
		<path fill="#FFFFFF" d="M60.416,85.457c-6.434,0-11.667-5.232-11.667-11.668c0-3.051,2.143-5.75,4.413-8.607
			c2.583-3.252,5.254-6.617,5.254-10.725h4c0,4.107,2.671,7.473,5.254,10.725c2.27,2.857,4.413,5.559,4.413,8.607
			C72.083,80.225,66.85,85.457,60.416,85.457z M60.416,61.77c-1.195,2.215-2.743,4.164-4.122,5.898
			c-1.823,2.297-3.545,4.465-3.545,6.121c0,4.229,3.438,7.668,7.667,7.668s7.667-3.439,7.667-7.668c0-1.656-1.722-3.824-3.545-6.121
			C63.159,65.934,61.611,63.982,60.416,61.77z"/>
	</g>
	<g>
		<path fill="#FFFFFF" d="M59.658,78.457c-2.344,0-4.242-1.898-4.242-4.242c0-2.342,1.898-4.242,4.242-4.24V78.457z"/>
	</g>
</g>
</svg>
