<?xml version="1.0" encoding="utf-8"?>
<!-- Generator: Adobe Illustrator 16.0.0, SVG Export Plug-In . SVG Version: 6.00 Build 0)  -->
<!DOCTYPE svg PUBLIC "-//W3C//DTD SVG 1.1//EN" "http://www.w3.org/Graphics/SVG/1.1/DTD/svg11.dtd">
<svg version="1.1" id="Layer_1" xmlns="http://www.w3.org/2000/svg" xmlns:xlink="http://www.w3.org/1999/xlink" x="0px" y="0px"
	 width="99.212px" height="90px" viewBox="-7.303 0 99.212 90" enable-background="new -7.303 0 99.212 90" xml:space="preserve">
<g>
	<path fill="#FFFFFF" d="M-3.656,42.617c6.851,0,10.104-3.805,11.645-7.215c1.395,3.383,4.463,7.136,11.183,7.208
		c0.011,0,0.022,0.006,0.033,0.006c0.027,0,0.052-0.002,0.079-0.002c0.026,0,0.052,0.002,0.079,0.002
		c0.011,0,0.021-0.006,0.033-0.006c6.715-0.072,9.926-3.832,11.453-7.208c1.408,3.416,4.518,7.215,11.375,7.215
		c6.85,0,10.102-3.805,11.645-7.215c1.408,3.416,4.518,7.215,11.373,7.215c6.852,0,10.104-3.805,11.646-7.215
		c1.408,3.416,4.518,7.215,11.373,7.215c0.701,0,1.27-0.569,1.27-1.27c0-0.702-0.568-1.27-1.27-1.27
		c-9.838,0-10-9.597-10.002-10.002c0-0.689-0.551-1.252-1.24-1.268c-0.715-0.021-1.266,0.521-1.297,1.211
		c-0.021,0.41-0.588,10.057-10.48,10.057c-9.838,0-9.998-9.596-10-10.001c0-0.69-0.551-1.252-1.242-1.269
		c-0.711-0.02-1.266,0.522-1.297,1.212c-0.021,0.41-0.588,10.057-10.479,10.057c-9.84,0-10-9.597-10.001-10.001
		c0-0.69-0.552-1.252-1.241-1.269c-0.654,0-1.266,0.523-1.297,1.211c-0.02,0.409-0.59,10-10.399,10.054
		c-9.757-0.054-9.92-9.593-9.922-9.996c0-0.69-0.551-1.252-1.241-1.269c-0.685,0-1.266,0.523-1.298,1.211
		c-0.019,0.41-0.588,10.058-10.479,10.058c-0.701,0-1.27,0.569-1.27,1.27C-4.926,42.044-4.357,42.617-3.656,42.617z"/>
	<path fill="#FFFFFF" d="M88.262,58.656c-9.838,0-9.998-9.596-10.002-10.002c0-0.689-0.551-1.252-1.238-1.268
		c-0.715-0.006-1.268,0.521-1.299,1.211c-0.021,0.41-0.588,10.059-10.48,10.059c-9.838,0-9.998-9.596-10-10.002
		c0-0.689-0.551-1.252-1.24-1.268c-0.713-0.006-1.268,0.521-1.299,1.211c-0.02,0.41-0.588,10.059-10.479,10.059
		c-9.84,0-10-9.596-10.001-10.002c0-0.689-0.551-1.252-1.241-1.268c-0.654,0.023-1.266,0.521-1.298,1.211
		c-0.019,0.408-0.589,9.998-10.399,10.053c-9.756-0.055-9.92-9.594-9.921-9.996c0-0.689-0.552-1.252-1.241-1.268
		c-0.685,0.023-1.266,0.521-1.298,1.211c-0.02,0.41-0.588,10.059-10.479,10.059c-0.701,0-1.27,0.568-1.27,1.27
		c0,0.703,0.569,1.27,1.27,1.27c6.85,0,10.104-3.805,11.645-7.213c1.395,3.381,4.463,7.133,11.183,7.207
		c0.011,0,0.021,0.006,0.033,0.006c0.026,0,0.052-0.002,0.078-0.002c0.027,0,0.053,0.002,0.079,0.002
		c0.012,0,0.022-0.006,0.033-0.006c6.715-0.074,9.926-3.832,11.453-7.207c1.408,3.414,4.518,7.213,11.374,7.213
		c6.85,0,10.102-3.805,11.645-7.213c1.408,3.414,4.518,7.213,11.373,7.213c6.852,0,10.104-3.805,11.646-7.213
		c1.408,3.414,4.518,7.213,11.373,7.213c0.703,0,1.27-0.566,1.27-1.27C89.531,59.225,88.963,58.656,88.262,58.656z"/>
</g>
</svg>
