<svg xmlns="http://www.w3.org/2000/svg" xmlns:xlink="http://www.w3.org/1999/xlink" version="1.1" x="0px" y="0px" width="100px" height="100px" viewBox="0 0 100 100" enable-background="new 0 0 100 100" xml:space="preserve"><path fill="#FFFFFF" d="M60.545 32.944l-5.688 5.687c2.93 2.9 4.7 6.9 4.7 11.369c0 4.445-1.814 8.469-4.744 11.4 l5.688 5.687c4.361-4.367 7.059-10.396 7.059-17.055C67.604 43.3 64.9 37.3 60.5 32.944z"/><path fill="#FFFFFF" d="M83.605 50c0-11.075-4.502-21.099-11.772-28.343l-5.63 5.63c5.809 5.8 9.4 13.8 9.4 22.7 c0 8.868-3.592 16.896-9.4 22.713l5.63 5.63C79.104 71.1 83.6 61.1 83.6 50z"/><path fill="#FFFFFF" d="M99.607 50c0-15.495-6.293-29.519-16.459-39.659l-5.658 5.658C86.21 24.7 91.6 36.7 91.6 50 c0 13.284-5.396 25.309-14.115 34l5.658 5.658C93.314 79.5 99.6 65.5 99.6 50z"/><polygon fill="#FFFFFF" points="0,66 21.1,66 44,87.2 44,12.8 21.5,34 0,34"/></svg>